<svg width="1920" height="1080" viewBox="0 0 1920 1080" fill="none" xmlns="http://www.w3.org/2000/svg">
<rect width="1920" height="1080" fill="#CDE3ED"/>
<rect x="455" y="143" width="150" height="150" rx="40" fill="#D9D9D9"/>
<path d="M514.904 280.592C511.747 280.592 508.973 280.336 506.584 279.824C504.195 279.312 502.104 278.075 500.312 276.112C498.605 274.149 497.752 271.12 497.752 267.024C497.752 261.307 499.459 253.627 502.872 243.984C506.371 234.341 510.936 224.656 516.568 214.928C512.301 215.184 508.931 215.824 506.456 216.848C503.981 217.872 502.36 219.451 501.592 221.584C501.933 221.584 502.275 222.011 502.616 222.864C503.043 223.717 503.256 224.613 503.256 225.552C503.256 227.088 502.573 228.325 501.208 229.264C499.843 230.117 498.136 230.544 496.088 230.544C493.699 230.544 491.779 229.904 490.328 228.624C488.877 227.344 488.152 225.509 488.152 223.12C488.152 220.219 489.261 217.573 491.48 215.184C493.784 212.795 496.941 210.917 500.952 209.552C504.963 208.101 509.4 207.376 514.264 207.376C516.056 207.376 518.275 207.504 520.92 207.76C527.917 196.667 535.299 187.621 543.064 180.624C550.915 173.541 558.381 170 565.464 170C569.56 170 572.931 170.597 575.576 171.792L555.48 266H537.048L546.904 219.536C543.747 218.085 540.845 217.019 538.2 216.336C535.555 215.653 532.739 215.184 529.752 214.928C524.888 225.424 520.877 236.176 517.72 247.184C514.648 258.107 513.112 266.853 513.112 273.424C513.112 276.667 513.709 279.056 514.904 280.592ZM555.48 179.088C551.811 181.051 547.971 184.72 543.96 190.096C540.035 195.387 536.195 201.829 532.44 209.424C538.584 210.619 543.789 212.112 548.056 213.904L555.48 179.088Z" fill="url(#paint0_linear_1_2)"/>
<rect x="263" y="143" width="150" height="150" rx="40" fill="url(#paint1_linear_1_2)"/>
<path d="M322.904 280.592C319.747 280.592 316.973 280.336 314.584 279.824C312.195 279.312 310.104 278.075 308.312 276.112C306.605 274.149 305.752 271.12 305.752 267.024C305.752 261.307 307.459 253.627 310.872 243.984C314.371 234.341 318.936 224.656 324.568 214.928C320.301 215.184 316.931 215.824 314.456 216.848C311.981 217.872 310.36 219.451 309.592 221.584C309.933 221.584 310.275 222.011 310.616 222.864C311.043 223.717 311.256 224.613 311.256 225.552C311.256 227.088 310.573 228.325 309.208 229.264C307.843 230.117 306.136 230.544 304.088 230.544C301.699 230.544 299.779 229.904 298.328 228.624C296.877 227.344 296.152 225.509 296.152 223.12C296.152 220.219 297.261 217.573 299.48 215.184C301.784 212.795 304.941 210.917 308.952 209.552C312.963 208.101 317.4 207.376 322.264 207.376C324.056 207.376 326.275 207.504 328.92 207.76C335.917 196.667 343.299 187.621 351.064 180.624C358.915 173.541 366.381 170 373.464 170C377.56 170 380.931 170.597 383.576 171.792L363.48 266H345.048L354.904 219.536C351.747 218.085 348.845 217.019 346.2 216.336C343.555 215.653 340.739 215.184 337.752 214.928C332.888 225.424 328.877 236.176 325.72 247.184C322.648 258.107 321.112 266.853 321.112 273.424C321.112 276.667 321.709 279.056 322.904 280.592ZM363.48 179.088C359.811 181.051 355.971 184.72 351.96 190.096C348.035 195.387 344.195 201.829 340.44 209.424C346.584 210.619 351.789 212.112 356.056 213.904L363.48 179.088Z" fill="white"/>
<path d="M674.904 280.592C671.747 280.592 668.973 280.336 666.584 279.824C664.195 279.312 662.104 278.075 660.312 276.112C658.605 274.149 657.752 271.12 657.752 267.024C657.752 261.307 659.459 253.627 662.872 243.984C666.371 234.341 670.936 224.656 676.568 214.928C672.301 215.184 668.931 215.824 666.456 216.848C663.981 217.872 662.36 219.451 661.592 221.584C661.933 221.584 662.275 222.011 662.616 222.864C663.043 223.717 663.256 224.613 663.256 225.552C663.256 227.088 662.573 228.325 661.208 229.264C659.843 230.117 658.136 230.544 656.088 230.544C653.699 230.544 651.779 229.904 650.328 228.624C648.877 227.344 648.152 225.509 648.152 223.12C648.152 220.219 649.261 217.573 651.48 215.184C653.784 212.795 656.941 210.917 660.952 209.552C664.963 208.101 669.4 207.376 674.264 207.376C676.056 207.376 678.275 207.504 680.92 207.76C687.917 196.667 695.299 187.621 703.064 180.624C710.915 173.541 718.381 170 725.464 170C729.56 170 732.931 170.597 735.576 171.792L715.48 266H697.048L706.904 219.536C703.747 218.085 700.845 217.019 698.2 216.336C695.555 215.653 692.739 215.184 689.752 214.928C684.888 225.424 680.877 236.176 677.72 247.184C674.648 258.107 673.112 266.853 673.112 273.424C673.112 276.667 673.709 279.056 674.904 280.592ZM715.48 179.088C711.811 181.051 707.971 184.72 703.96 190.096C700.035 195.387 696.195 201.829 692.44 209.424C698.584 210.619 703.789 212.112 708.056 213.904L715.48 179.088Z" fill="url(#paint2_linear_1_2)"/>
<path d="M290.904 532.592C287.747 532.592 284.973 532.336 282.584 531.824C280.195 531.312 278.104 530.075 276.312 528.112C274.605 526.149 273.752 523.12 273.752 519.024C273.752 513.307 275.459 505.627 278.872 495.984C282.371 486.341 286.936 476.656 292.568 466.928C288.301 467.184 284.931 467.824 282.456 468.848C279.981 469.872 278.36 471.451 277.592 473.584C277.933 473.584 278.275 474.011 278.616 474.864C279.043 475.717 279.256 476.613 279.256 477.552C279.256 479.088 278.573 480.325 277.208 481.264C275.843 482.117 274.136 482.544 272.088 482.544C269.699 482.544 267.779 481.904 266.328 480.624C264.877 479.344 264.152 477.509 264.152 475.12C264.152 472.219 265.261 469.573 267.48 467.184C269.784 464.795 272.941 462.917 276.952 461.552C280.963 460.101 285.4 459.376 290.264 459.376C292.056 459.376 294.275 459.504 296.92 459.76C303.917 448.667 311.299 439.621 319.064 432.624C326.915 425.541 334.381 422 341.464 422C345.56 422 348.931 422.597 351.576 423.792L331.48 518H313.048L322.904 471.536C319.747 470.085 316.845 469.019 314.2 468.336C311.555 467.653 308.739 467.184 305.752 466.928C300.888 477.424 296.877 488.176 293.72 499.184C290.648 510.107 289.112 518.853 289.112 525.424C289.112 528.667 289.709 531.056 290.904 532.592ZM331.48 431.088C327.811 433.051 323.971 436.72 319.96 442.096C316.035 447.387 312.195 453.829 308.44 461.424C314.584 462.619 319.789 464.112 324.056 465.904L331.48 431.088ZM357.204 454H375.636L373.972 461.936C376.873 459.376 379.476 457.413 381.78 456.048C384.169 454.683 386.729 454 389.46 454C392.191 454 394.324 454.939 395.86 456.816C397.481 458.693 398.292 460.955 398.292 463.6C398.292 466.075 397.481 468.251 395.86 470.128C394.239 472.005 391.977 472.944 389.076 472.944C387.199 472.944 385.919 472.517 385.236 471.664C384.639 470.725 384.169 469.403 383.828 467.696C383.572 466.587 383.316 465.776 383.06 465.264C382.804 464.752 382.335 464.496 381.652 464.496C379.86 464.496 378.324 464.88 377.044 465.648C375.849 466.331 374.271 467.568 372.308 469.36L362.068 518H343.636L357.204 454ZM411.985 518.768C407.121 518.768 403.068 517.104 399.825 513.776C396.582 510.448 394.961 505.243 394.961 498.16C394.961 491.845 396.198 485.232 398.673 478.32C401.233 471.323 404.988 465.435 409.937 460.656C414.972 455.792 420.945 453.36 427.857 453.36C431.356 453.36 433.958 453.957 435.665 455.152C437.372 456.347 438.225 457.925 438.225 459.888V460.784L439.633 454H458.065L448.849 497.52C448.508 498.8 448.337 500.165 448.337 501.616C448.337 505.285 450.086 507.12 453.585 507.12C455.974 507.12 458.022 506.011 459.729 503.792C461.521 501.573 462.929 498.672 463.953 495.088H469.329C466.172 504.304 462.246 510.576 457.553 513.904C452.945 517.147 448.294 518.768 443.601 518.768C440.017 518.768 437.116 517.787 434.897 515.824C432.764 513.776 431.484 510.832 431.057 506.992C428.582 510.491 425.809 513.349 422.737 515.568C419.75 517.701 416.166 518.768 411.985 518.768ZM420.305 506.352C422.438 506.352 424.529 505.371 426.577 503.408C428.71 501.36 430.161 498.587 430.929 495.088L437.073 466.16C437.073 465.051 436.646 463.984 435.793 462.96C434.94 461.851 433.617 461.296 431.825 461.296C428.412 461.296 425.34 463.301 422.609 467.312C419.878 471.237 417.745 476.016 416.209 481.648C414.673 487.195 413.905 492.101 413.905 496.368C413.905 500.635 414.502 503.365 415.697 504.56C416.977 505.755 418.513 506.352 420.305 506.352ZM452.48 550C448.469 550 444.971 548.677 441.984 546.032C438.912 543.472 437.376 540.187 437.376 536.176C437.376 532.507 438.315 529.477 440.192 527.088C442.069 524.699 444.501 522.779 447.488 521.328C450.475 519.963 454.443 518.512 459.392 516.976L474.88 443.888C476.587 435.696 479.573 430.021 483.84 426.864C488.192 423.707 492.971 422.128 498.176 422.128C502.187 422.128 505.685 423.451 508.672 426.096C511.744 428.656 513.28 431.941 513.28 435.952C513.28 437.915 513.152 439.664 512.896 441.2H506.88C507.051 439.323 507.136 438.171 507.136 437.744C507.136 436.379 506.667 435.312 505.728 434.544C504.789 433.776 503.637 433.392 502.272 433.392C500.48 433.392 498.731 434.203 497.024 435.824C495.317 437.36 494.08 440.048 493.312 443.888L491.136 454H500.48L499.584 459.12H490.112L475.392 528.24C473.685 536.517 470.741 542.192 466.56 545.264C462.379 548.421 457.685 550 452.48 550ZM449.536 538.608C452.949 538.608 455.381 535.28 456.832 528.624L458.496 521.2C453.973 522.736 450.517 524.485 448.128 526.448C445.653 528.496 444.416 531.141 444.416 534.384C444.416 535.408 444.928 536.347 445.952 537.2C446.976 538.139 448.171 538.608 449.536 538.608ZM513.485 518.768C508.621 518.768 504.568 517.104 501.325 513.776C498.082 510.448 496.461 505.243 496.461 498.16C496.461 491.845 497.698 485.232 500.173 478.32C502.733 471.323 506.488 465.435 511.437 460.656C516.472 455.792 522.445 453.36 529.357 453.36C532.856 453.36 535.458 453.957 537.165 455.152C538.872 456.347 539.725 457.925 539.725 459.888V460.784L541.133 454H559.565L550.349 497.52C550.008 498.8 549.837 500.165 549.837 501.616C549.837 505.285 551.586 507.12 555.085 507.12C557.474 507.12 559.522 506.011 561.229 503.792C563.021 501.573 564.429 498.672 565.453 495.088H570.829C567.672 504.304 563.746 510.576 559.053 513.904C554.445 517.147 549.794 518.768 545.101 518.768C541.517 518.768 538.616 517.787 536.397 515.824C534.264 513.776 532.984 510.832 532.557 506.992C530.082 510.491 527.309 513.349 524.237 515.568C521.25 517.701 517.666 518.768 513.485 518.768ZM521.805 506.352C523.938 506.352 526.029 505.371 528.077 503.408C530.21 501.36 531.661 498.587 532.429 495.088L538.573 466.16C538.573 465.051 538.146 463.984 537.293 462.96C536.44 461.851 535.117 461.296 533.325 461.296C529.912 461.296 526.84 463.301 524.109 467.312C521.378 471.237 519.245 476.016 517.709 481.648C516.173 487.195 515.405 492.101 515.405 496.368C515.405 500.635 516.002 503.365 517.197 504.56C518.477 505.755 520.013 506.352 521.805 506.352ZM577.532 518.768C573.18 518.768 569.937 517.445 567.804 514.8C565.756 512.155 564.732 508.656 564.732 504.304C564.732 502.085 564.988 499.824 565.5 497.52L573.692 459.12H569.468L570.492 454H574.716L578.556 436.336L597.5 433.776C596.732 437.019 596.305 438.939 596.22 439.536C595.623 441.925 594.599 446.747 593.148 454H600.828L599.804 459.12H592.124L583.932 497.52C583.505 499.397 583.292 500.891 583.292 502C583.292 505.072 584.785 506.608 587.772 506.608C589.308 506.608 590.417 506.48 591.1 506.224C589.393 511.173 587.388 514.501 585.084 516.208C582.78 517.915 580.263 518.768 577.532 518.768ZM647.083 428.912C645.291 428.912 643.84 428.869 642.731 428.784L635.563 428.656C627.712 428.656 623.787 429.595 623.787 431.472C624.299 431.472 624.768 431.813 625.195 432.496C625.707 433.179 625.963 434.203 625.963 435.568C625.963 438.128 625.152 440.005 623.531 441.2C621.995 442.309 620.288 442.864 618.411 442.864C616.107 442.864 614.443 442.139 613.419 440.688C612.395 439.152 611.883 437.36 611.883 435.312C611.883 431.813 613.291 428.741 616.107 426.096C618.923 423.365 622.763 422 627.627 422H671.531L627.371 509.68C629.76 509.68 631.595 509.723 632.875 509.808L639.659 509.936C643.243 509.936 646.144 509.765 648.363 509.424C650.667 508.997 652.203 508.229 652.971 507.12C652.374 507.12 651.819 506.821 651.307 506.224C650.88 505.541 650.667 504.517 650.667 503.152C650.667 500.592 651.435 498.715 652.971 497.52C654.507 496.325 656.299 495.728 658.347 495.728C660.566 495.728 662.187 496.453 663.211 497.904C664.32 499.355 664.875 501.104 664.875 503.152C664.875 505.371 664.192 507.632 662.827 509.936C661.462 512.24 659.499 514.16 656.939 515.696C654.464 517.232 651.648 518 648.491 518H602.283L647.083 428.912ZM685.61 518.768C680.746 518.768 676.693 517.104 673.45 513.776C670.207 510.448 668.586 505.243 668.586 498.16C668.586 491.845 669.823 485.232 672.298 478.32C674.858 471.323 678.613 465.435 683.562 460.656C688.597 455.792 694.57 453.36 701.482 453.36C704.981 453.36 707.583 453.957 709.29 455.152C710.997 456.347 711.85 457.925 711.85 459.888V460.784L713.258 454H731.69L722.474 497.52C722.133 498.8 721.962 500.165 721.962 501.616C721.962 505.285 723.711 507.12 727.21 507.12C729.599 507.12 731.647 506.011 733.354 503.792C735.146 501.573 736.554 498.672 737.578 495.088H742.954C739.797 504.304 735.871 510.576 731.178 513.904C726.57 517.147 721.919 518.768 717.226 518.768C713.642 518.768 710.741 517.787 708.522 515.824C706.389 513.776 705.109 510.832 704.682 506.992C702.207 510.491 699.434 513.349 696.362 515.568C693.375 517.701 689.791 518.768 685.61 518.768ZM693.93 506.352C696.063 506.352 698.154 505.371 700.202 503.408C702.335 501.36 703.786 498.587 704.554 495.088L710.698 466.16C710.698 465.051 710.271 463.984 709.418 462.96C708.565 461.851 707.242 461.296 705.45 461.296C702.037 461.296 698.965 463.301 696.234 467.312C693.503 471.237 691.37 476.016 689.834 481.648C688.298 487.195 687.53 492.101 687.53 496.368C687.53 500.635 688.127 503.365 689.322 504.56C690.602 505.755 692.138 506.352 693.93 506.352ZM815.449 518.768C810.244 518.768 806.404 517.403 803.929 514.672C801.54 511.856 800.345 508.4 800.345 504.304C800.345 502.512 800.558 500.507 800.985 498.288C801.412 495.984 801.838 493.765 802.265 491.632C802.777 489.499 803.118 488.133 803.289 487.536C803.972 484.549 804.612 481.605 805.209 478.704C805.806 475.803 806.105 473.456 806.105 471.664C806.105 467.312 804.569 465.136 801.497 465.136C799.278 465.136 797.316 466.245 795.609 468.464C793.902 470.597 792.537 473.413 791.513 476.912L782.809 518H764.377L773.721 473.84C773.977 472.816 774.105 471.749 774.105 470.64C774.105 466.885 772.825 465.008 770.265 465.008C767.876 465.008 765.785 466.117 763.993 468.336C762.286 470.469 760.921 473.328 759.897 476.912L751.193 518H732.761L746.329 454H764.761L763.353 460.656C767.705 455.792 772.91 453.36 778.969 453.36C786.478 453.36 790.873 457.029 792.153 464.368C796.846 457.115 802.777 453.488 809.945 453.488C814.297 453.488 817.753 454.683 820.313 457.072C822.873 459.461 824.153 463.088 824.153 467.952C824.153 470.427 823.854 473.2 823.257 476.272C822.66 479.259 821.806 482.928 820.697 487.28C820.014 489.925 819.374 492.528 818.777 495.088C818.265 497.563 818.009 499.525 818.009 500.976C818.009 502.683 818.393 504.005 819.161 504.944C819.929 505.883 821.252 506.352 823.129 506.352C825.689 506.352 827.737 505.456 829.273 503.664C830.809 501.787 832.345 498.928 833.881 495.088H839.257C836.1 504.475 832.43 510.789 828.249 514.032C824.153 517.189 819.886 518.768 815.449 518.768ZM849.235 518.768C844.371 518.768 840.318 517.104 837.075 513.776C833.832 510.448 832.211 505.243 832.211 498.16C832.211 491.845 833.448 485.232 835.923 478.32C838.483 471.323 842.238 465.435 847.187 460.656C852.222 455.792 858.195 453.36 865.107 453.36C868.606 453.36 871.208 453.957 872.915 455.152C874.622 456.347 875.475 457.925 875.475 459.888V460.784L876.883 454H895.315L886.099 497.52C885.758 498.8 885.587 500.165 885.587 501.616C885.587 505.285 887.336 507.12 890.835 507.12C893.224 507.12 895.272 506.011 896.979 503.792C898.771 501.573 900.179 498.672 901.203 495.088H906.579C903.422 504.304 899.496 510.576 894.803 513.904C890.195 517.147 885.544 518.768 880.851 518.768C877.267 518.768 874.366 517.787 872.147 515.824C870.014 513.776 868.734 510.832 868.307 506.992C865.832 510.491 863.059 513.349 859.987 515.568C857 517.701 853.416 518.768 849.235 518.768ZM857.555 506.352C859.688 506.352 861.779 505.371 863.827 503.408C865.96 501.36 867.411 498.587 868.179 495.088L874.323 466.16C874.323 465.051 873.896 463.984 873.043 462.96C872.19 461.851 870.867 461.296 869.075 461.296C865.662 461.296 862.59 463.301 859.859 467.312C857.128 471.237 854.995 476.016 853.459 481.648C851.923 487.195 851.155 492.101 851.155 496.368C851.155 500.635 851.752 503.365 852.947 504.56C854.227 505.755 855.763 506.352 857.555 506.352ZM945.282 518.768C940.759 518.768 937.474 517.403 935.426 514.672C933.378 511.941 932.354 508.485 932.354 504.304C932.354 502.512 932.567 500.507 932.994 498.288C933.421 495.984 933.847 493.765 934.274 491.632C934.786 489.499 935.127 488.133 935.298 487.536C935.981 484.549 936.621 481.605 937.218 478.704C937.815 475.803 938.114 473.456 938.114 471.664C938.114 467.312 936.578 465.136 933.506 465.136C931.287 465.136 929.325 466.245 927.618 468.464C925.911 470.597 924.546 473.413 923.522 476.912L914.818 518H896.386L909.954 454H928.386L926.978 460.656C931.245 455.877 936.237 453.488 941.954 453.488C946.306 453.488 949.762 454.683 952.322 457.072C954.882 459.461 956.162 463.088 956.162 467.952C956.162 470.427 955.863 473.2 955.266 476.272C954.669 479.259 953.815 482.928 952.706 487.28C952.023 489.925 951.383 492.528 950.786 495.088C950.274 497.563 950.018 499.525 950.018 500.976C950.018 502.683 950.402 504.005 951.17 504.944C951.938 505.883 953.261 506.352 955.138 506.352C957.186 506.352 958.594 506.096 959.362 505.584C958.85 509.936 957.271 513.221 954.626 515.44C952.066 517.659 948.951 518.768 945.282 518.768Z" fill="url(#paint3_linear_1_2)"/>
<path d="M283.904 692.592C280.747 692.592 277.973 692.336 275.584 691.824C273.195 691.312 271.104 690.075 269.312 688.112C267.605 686.149 266.752 683.12 266.752 679.024C266.752 673.307 268.459 665.627 271.872 655.984C275.371 646.341 279.936 636.656 285.568 626.928C281.301 627.184 277.931 627.824 275.456 628.848C272.981 629.872 271.36 631.451 270.592 633.584C270.933 633.584 271.275 634.011 271.616 634.864C272.043 635.717 272.256 636.613 272.256 637.552C272.256 639.088 271.573 640.325 270.208 641.264C268.843 642.117 267.136 642.544 265.088 642.544C262.699 642.544 260.779 641.904 259.328 640.624C257.877 639.344 257.152 637.509 257.152 635.12C257.152 632.219 258.261 629.573 260.48 627.184C262.784 624.795 265.941 622.917 269.952 621.552C273.963 620.101 278.4 619.376 283.264 619.376C285.056 619.376 287.275 619.504 289.92 619.76C296.917 608.667 304.299 599.621 312.064 592.624C319.915 585.541 327.381 582 334.464 582C338.56 582 341.931 582.597 344.576 583.792L324.48 678H306.048L315.904 631.536C312.747 630.085 309.845 629.019 307.2 628.336C304.555 627.653 301.739 627.184 298.752 626.928C293.888 637.424 289.877 648.176 286.72 659.184C283.648 670.107 282.112 678.853 282.112 685.424C282.112 688.667 282.709 691.056 283.904 692.592ZM324.48 591.088C320.811 593.051 316.971 596.72 312.96 602.096C309.035 607.387 305.195 613.829 301.44 621.424C307.584 622.619 312.789 624.112 317.056 625.904L324.48 591.088ZM350.204 614H368.636L366.972 621.936C369.873 619.376 372.476 617.413 374.78 616.048C377.169 614.683 379.729 614 382.46 614C385.191 614 387.324 614.939 388.86 616.816C390.481 618.693 391.292 620.955 391.292 623.6C391.292 626.075 390.481 628.251 388.86 630.128C387.239 632.005 384.977 632.944 382.076 632.944C380.199 632.944 378.919 632.517 378.236 631.664C377.639 630.725 377.169 629.403 376.828 627.696C376.572 626.587 376.316 625.776 376.06 625.264C375.804 624.752 375.335 624.496 374.652 624.496C372.86 624.496 371.324 624.88 370.044 625.648C368.849 626.331 367.271 627.568 365.308 629.36L355.068 678H336.636L350.204 614ZM404.985 678.768C400.121 678.768 396.068 677.104 392.825 673.776C389.582 670.448 387.961 665.243 387.961 658.16C387.961 651.845 389.198 645.232 391.673 638.32C394.233 631.323 397.988 625.435 402.937 620.656C407.972 615.792 413.945 613.36 420.857 613.36C424.356 613.36 426.958 613.957 428.665 615.152C430.372 616.347 431.225 617.925 431.225 619.888V620.784L432.633 614H451.065L441.849 657.52C441.508 658.8 441.337 660.165 441.337 661.616C441.337 665.285 443.086 667.12 446.585 667.12C448.974 667.12 451.022 666.011 452.729 663.792C454.521 661.573 455.929 658.672 456.953 655.088H462.329C459.172 664.304 455.246 670.576 450.553 673.904C445.945 677.147 441.294 678.768 436.601 678.768C433.017 678.768 430.116 677.787 427.897 675.824C425.764 673.776 424.484 670.832 424.057 666.992C421.582 670.491 418.809 673.349 415.737 675.568C412.75 677.701 409.166 678.768 404.985 678.768ZM413.305 666.352C415.438 666.352 417.529 665.371 419.577 663.408C421.71 661.36 423.161 658.587 423.929 655.088L430.073 626.16C430.073 625.051 429.646 623.984 428.793 622.96C427.94 621.851 426.617 621.296 424.825 621.296C421.412 621.296 418.34 623.301 415.609 627.312C412.878 631.237 410.745 636.016 409.209 641.648C407.673 647.195 406.905 652.101 406.905 656.368C406.905 660.635 407.502 663.365 408.697 664.56C409.977 665.755 411.513 666.352 413.305 666.352ZM445.48 710C441.469 710 437.971 708.677 434.984 706.032C431.912 703.472 430.376 700.187 430.376 696.176C430.376 692.507 431.315 689.477 433.192 687.088C435.069 684.699 437.501 682.779 440.488 681.328C443.475 679.963 447.443 678.512 452.392 676.976L467.88 603.888C469.587 595.696 472.573 590.021 476.84 586.864C481.192 583.707 485.971 582.128 491.176 582.128C495.187 582.128 498.685 583.451 501.672 586.096C504.744 588.656 506.28 591.941 506.28 595.952C506.28 597.915 506.152 599.664 505.896 601.2H499.88C500.051 599.323 500.136 598.171 500.136 597.744C500.136 596.379 499.667 595.312 498.728 594.544C497.789 593.776 496.637 593.392 495.272 593.392C493.48 593.392 491.731 594.203 490.024 595.824C488.317 597.36 487.08 600.048 486.312 603.888L484.136 614H493.48L492.584 619.12H483.112L468.392 688.24C466.685 696.517 463.741 702.192 459.56 705.264C455.379 708.421 450.685 710 445.48 710ZM442.536 698.608C445.949 698.608 448.381 695.28 449.832 688.624L451.496 681.2C446.973 682.736 443.517 684.485 441.128 686.448C438.653 688.496 437.416 691.141 437.416 694.384C437.416 695.408 437.928 696.347 438.952 697.2C439.976 698.139 441.171 698.608 442.536 698.608ZM506.485 678.768C501.621 678.768 497.568 677.104 494.325 673.776C491.082 670.448 489.461 665.243 489.461 658.16C489.461 651.845 490.698 645.232 493.173 638.32C495.733 631.323 499.488 625.435 504.437 620.656C509.472 615.792 515.445 613.36 522.357 613.36C525.856 613.36 528.458 613.957 530.165 615.152C531.872 616.347 532.725 617.925 532.725 619.888V620.784L534.133 614H552.565L543.349 657.52C543.008 658.8 542.837 660.165 542.837 661.616C542.837 665.285 544.586 667.12 548.085 667.12C550.474 667.12 552.522 666.011 554.229 663.792C556.021 661.573 557.429 658.672 558.453 655.088H563.829C560.672 664.304 556.746 670.576 552.053 673.904C547.445 677.147 542.794 678.768 538.101 678.768C534.517 678.768 531.616 677.787 529.397 675.824C527.264 673.776 525.984 670.832 525.557 666.992C523.082 670.491 520.309 673.349 517.237 675.568C514.25 677.701 510.666 678.768 506.485 678.768ZM514.805 666.352C516.938 666.352 519.029 665.371 521.077 663.408C523.21 661.36 524.661 658.587 525.429 655.088L531.573 626.16C531.573 625.051 531.146 623.984 530.293 622.96C529.44 621.851 528.117 621.296 526.325 621.296C522.912 621.296 519.84 623.301 517.109 627.312C514.378 631.237 512.245 636.016 510.709 641.648C509.173 647.195 508.405 652.101 508.405 656.368C508.405 660.635 509.002 663.365 510.197 664.56C511.477 665.755 513.013 666.352 514.805 666.352ZM570.532 678.768C566.18 678.768 562.937 677.445 560.804 674.8C558.756 672.155 557.732 668.656 557.732 664.304C557.732 662.085 557.988 659.824 558.5 657.52L566.692 619.12H562.468L563.492 614H567.716L571.556 596.336L590.5 593.776C589.732 597.019 589.305 598.939 589.22 599.536C588.623 601.925 587.599 606.747 586.148 614H593.828L592.804 619.12H585.124L576.932 657.52C576.505 659.397 576.292 660.891 576.292 662C576.292 665.072 577.785 666.608 580.772 666.608C582.308 666.608 583.417 666.48 584.1 666.224C582.393 671.173 580.388 674.501 578.084 676.208C575.78 677.915 573.263 678.768 570.532 678.768Z" fill="url(#paint4_linear_1_2)"/>
<defs>
<linearGradient id="paint0_linear_1_2" x1="530" y1="138" x2="530" y2="298" gradientUnits="userSpaceOnUse">
<stop stop-color="#161616"/>
<stop offset="1" stop-color="#14EADD"/>
</linearGradient>
<linearGradient id="paint1_linear_1_2" x1="338" y1="143" x2="338" y2="293" gradientUnits="userSpaceOnUse">
<stop stop-color="#161616"/>
<stop offset="1" stop-color="#14EADD"/>
</linearGradient>
<linearGradient id="paint2_linear_1_2" x1="690" y1="138" x2="690" y2="298" gradientUnits="userSpaceOnUse">
<stop stop-color="#161616"/>
<stop offset="1" stop-color="#14EADD"/>
</linearGradient>
<linearGradient id="paint3_linear_1_2" x1="611.5" y1="390" x2="611.5" y2="550" gradientUnits="userSpaceOnUse">
<stop/>
<stop offset="1" stop-color="#14EADD"/>
</linearGradient>
<linearGradient id="paint4_linear_1_2" x1="425" y1="550" x2="425" y2="710" gradientUnits="userSpaceOnUse">
<stop/>
<stop offset="1" stop-color="#14EADD"/>
</linearGradient>
</defs>
</svg>
