<svg width="696" height="128" viewBox="0 0 696 128" fill="none" xmlns="http://www.w3.org/2000/svg">
<path d="M26.904 110.592C23.7467 110.592 20.9733 110.336 18.584 109.824C16.1947 109.312 14.104 108.075 12.312 106.112C10.6053 104.149 9.752 101.12 9.752 97.024C9.752 91.3067 11.4587 83.6267 14.872 73.984C18.3707 64.3413 22.936 54.656 28.568 44.928C24.3013 45.184 20.9307 45.824 18.456 46.848C15.9813 47.872 14.36 49.4507 13.592 51.584C13.9333 51.584 14.2747 52.0107 14.616 52.864C15.0427 53.7173 15.256 54.6133 15.256 55.552C15.256 57.088 14.5733 58.3253 13.208 59.264C11.8427 60.1173 10.136 60.544 8.088 60.544C5.69867 60.544 3.77867 59.904 2.328 58.624C0.877333 57.344 0.152 55.5093 0.152 53.12C0.152 50.2187 1.26133 47.5733 3.48 45.184C5.784 42.7947 8.94133 40.9173 12.952 39.552C16.9627 38.1013 21.4 37.376 26.264 37.376C28.056 37.376 30.2747 37.504 32.92 37.76C39.9173 26.6667 47.2987 17.6213 55.064 10.624C62.9147 3.54133 70.3813 -7.62939e-06 77.464 -7.62939e-06C81.56 -7.62939e-06 84.9307 0.597326 87.576 1.79199L67.48 96H49.048L58.904 49.536C55.7467 48.0853 52.8453 47.0187 50.2 46.336C47.5547 45.6533 44.7387 45.184 41.752 44.928C36.888 55.424 32.8773 66.176 29.72 77.184C26.648 88.1067 25.112 96.8533 25.112 103.424C25.112 106.667 25.7093 109.056 26.904 110.592ZM67.48 9.088C63.8107 11.0507 59.9707 14.72 55.96 20.096C52.0347 25.3867 48.1947 31.8293 44.44 39.424C50.584 40.6187 55.7893 42.112 60.056 43.904L67.48 9.088ZM93.204 32H111.636L109.972 39.936C112.873 37.376 115.476 35.4133 117.78 34.048C120.169 32.6827 122.729 32 125.46 32C128.191 32 130.324 32.9387 131.86 34.816C133.481 36.6933 134.292 38.9547 134.292 41.6C134.292 44.0747 133.481 46.2507 131.86 48.128C130.239 50.0053 127.977 50.944 125.076 50.944C123.199 50.944 121.919 50.5173 121.236 49.664C120.639 48.7253 120.169 47.4027 119.828 45.696C119.572 44.5867 119.316 43.776 119.06 43.264C118.804 42.752 118.335 42.496 117.652 42.496C115.86 42.496 114.324 42.88 113.044 43.648C111.849 44.3307 110.271 45.568 108.308 47.36L98.068 96H79.636L93.204 32ZM147.985 96.768C143.121 96.768 139.068 95.104 135.825 91.776C132.582 88.448 130.961 83.2427 130.961 76.16C130.961 69.8453 132.198 63.232 134.673 56.32C137.233 49.3227 140.988 43.4347 145.937 38.656C150.972 33.792 156.945 31.36 163.857 31.36C167.356 31.36 169.958 31.9573 171.665 33.152C173.372 34.3467 174.225 35.9253 174.225 37.888V38.784L175.633 32H194.065L184.849 75.52C184.508 76.8 184.337 78.1653 184.337 79.616C184.337 83.2853 186.086 85.12 189.585 85.12C191.974 85.12 194.022 84.0107 195.729 81.792C197.521 79.5733 198.929 76.672 199.953 73.088H205.329C202.172 82.304 198.246 88.576 193.553 91.904C188.945 95.1467 184.294 96.768 179.601 96.768C176.017 96.768 173.116 95.7867 170.897 93.824C168.764 91.776 167.484 88.832 167.057 84.992C164.582 88.4907 161.809 91.3493 158.737 93.568C155.75 95.7013 152.166 96.768 147.985 96.768ZM156.305 84.352C158.438 84.352 160.529 83.3707 162.577 81.408C164.71 79.36 166.161 76.5867 166.929 73.088L173.073 44.16C173.073 43.0507 172.646 41.984 171.793 40.96C170.94 39.8507 169.617 39.296 167.825 39.296C164.412 39.296 161.34 41.3013 158.609 45.312C155.878 49.2373 153.745 54.016 152.209 59.648C150.673 65.1947 149.905 70.1013 149.905 74.368C149.905 78.6347 150.502 81.3653 151.697 82.56C152.977 83.7547 154.513 84.352 156.305 84.352ZM188.48 128C184.469 128 180.971 126.677 177.984 124.032C174.912 121.472 173.376 118.187 173.376 114.176C173.376 110.507 174.315 107.477 176.192 105.088C178.069 102.699 180.501 100.779 183.488 99.328C186.475 97.9627 190.443 96.512 195.392 94.976L210.88 21.888C212.587 13.696 215.573 8.02133 219.84 4.864C224.192 1.70667 228.971 0.127998 234.176 0.127998C238.187 0.127998 241.685 1.45066 244.672 4.09599C247.744 6.656 249.28 9.94133 249.28 13.952C249.28 15.9147 249.152 17.664 248.896 19.2H242.88C243.051 17.3227 243.136 16.1707 243.136 15.744C243.136 14.3787 242.667 13.312 241.728 12.544C240.789 11.776 239.637 11.392 238.272 11.392C236.48 11.392 234.731 12.2027 233.024 13.824C231.317 15.36 230.08 18.048 229.312 21.888L227.136 32H236.48L235.584 37.12H226.112L211.392 106.24C209.685 114.517 206.741 120.192 202.56 123.264C198.379 126.421 193.685 128 188.48 128ZM185.536 116.608C188.949 116.608 191.381 113.28 192.832 106.624L194.496 99.2C189.973 100.736 186.517 102.485 184.128 104.448C181.653 106.496 180.416 109.141 180.416 112.384C180.416 113.408 180.928 114.347 181.952 115.2C182.976 116.139 184.171 116.608 185.536 116.608ZM249.485 96.768C244.621 96.768 240.568 95.104 237.325 91.776C234.082 88.448 232.461 83.2427 232.461 76.16C232.461 69.8453 233.698 63.232 236.173 56.32C238.733 49.3227 242.488 43.4347 247.437 38.656C252.472 33.792 258.445 31.36 265.357 31.36C268.856 31.36 271.458 31.9573 273.165 33.152C274.872 34.3467 275.725 35.9253 275.725 37.888V38.784L277.133 32H295.565L286.349 75.52C286.008 76.8 285.837 78.1653 285.837 79.616C285.837 83.2853 287.586 85.12 291.085 85.12C293.474 85.12 295.522 84.0107 297.229 81.792C299.021 79.5733 300.429 76.672 301.453 73.088H306.829C303.672 82.304 299.746 88.576 295.053 91.904C290.445 95.1467 285.794 96.768 281.101 96.768C277.517 96.768 274.616 95.7867 272.397 93.824C270.264 91.776 268.984 88.832 268.557 84.992C266.082 88.4907 263.309 91.3493 260.237 93.568C257.25 95.7013 253.666 96.768 249.485 96.768ZM257.805 84.352C259.938 84.352 262.029 83.3707 264.077 81.408C266.21 79.36 267.661 76.5867 268.429 73.088L274.573 44.16C274.573 43.0507 274.146 41.984 273.293 40.96C272.44 39.8507 271.117 39.296 269.325 39.296C265.912 39.296 262.84 41.3013 260.109 45.312C257.378 49.2373 255.245 54.016 253.709 59.648C252.173 65.1947 251.405 70.1013 251.405 74.368C251.405 78.6347 252.002 81.3653 253.197 82.56C254.477 83.7547 256.013 84.352 257.805 84.352ZM313.532 96.768C309.18 96.768 305.937 95.4453 303.804 92.8C301.756 90.1547 300.732 86.656 300.732 82.304C300.732 80.0853 300.988 77.824 301.5 75.52L309.692 37.12H305.468L306.492 32H310.716L314.556 14.336L333.5 11.776C332.732 15.0187 332.305 16.9387 332.22 17.536C331.623 19.9253 330.599 24.7467 329.148 32H336.828L335.804 37.12H328.124L319.932 75.52C319.505 77.3973 319.292 78.8907 319.292 80C319.292 83.072 320.785 84.608 323.772 84.608C325.308 84.608 326.417 84.48 327.1 84.224C325.393 89.1733 323.388 92.5013 321.084 94.208C318.78 95.9147 316.263 96.768 313.532 96.768ZM383.083 6.91199C381.291 6.91199 379.84 6.86933 378.731 6.784L371.563 6.656C363.712 6.656 359.787 7.59466 359.787 9.47199C360.299 9.47199 360.768 9.81333 361.195 10.496C361.707 11.1787 361.963 12.2027 361.963 13.568C361.963 16.128 361.152 18.0053 359.531 19.2C357.995 20.3093 356.288 20.864 354.411 20.864C352.107 20.864 350.443 20.1387 349.419 18.688C348.395 17.152 347.883 15.36 347.883 13.312C347.883 9.81333 349.291 6.74133 352.107 4.09599C354.923 1.36533 358.763 -7.62939e-06 363.627 -7.62939e-06H407.531L363.371 87.68C365.76 87.68 367.595 87.7227 368.875 87.808L375.659 87.936C379.243 87.936 382.144 87.7653 384.363 87.424C386.667 86.9973 388.203 86.2293 388.971 85.12C388.374 85.12 387.819 84.8213 387.307 84.224C386.88 83.5413 386.667 82.5173 386.667 81.152C386.667 78.592 387.435 76.7147 388.971 75.52C390.507 74.3253 392.299 73.728 394.347 73.728C396.566 73.728 398.187 74.4533 399.211 75.904C400.32 77.3547 400.875 79.104 400.875 81.152C400.875 83.3707 400.192 85.632 398.827 87.936C397.462 90.24 395.499 92.16 392.939 93.696C390.464 95.232 387.648 96 384.491 96H338.283L383.083 6.91199ZM421.61 96.768C416.746 96.768 412.693 95.104 409.45 91.776C406.207 88.448 404.586 83.2427 404.586 76.16C404.586 69.8453 405.823 63.232 408.298 56.32C410.858 49.3227 414.613 43.4347 419.562 38.656C424.597 33.792 430.57 31.36 437.482 31.36C440.981 31.36 443.583 31.9573 445.29 33.152C446.997 34.3467 447.85 35.9253 447.85 37.888V38.784L449.258 32H467.69L458.474 75.52C458.133 76.8 457.962 78.1653 457.962 79.616C457.962 83.2853 459.711 85.12 463.21 85.12C465.599 85.12 467.647 84.0107 469.354 81.792C471.146 79.5733 472.554 76.672 473.578 73.088H478.954C475.797 82.304 471.871 88.576 467.178 91.904C462.57 95.1467 457.919 96.768 453.226 96.768C449.642 96.768 446.741 95.7867 444.522 93.824C442.389 91.776 441.109 88.832 440.682 84.992C438.207 88.4907 435.434 91.3493 432.362 93.568C429.375 95.7013 425.791 96.768 421.61 96.768ZM429.93 84.352C432.063 84.352 434.154 83.3707 436.202 81.408C438.335 79.36 439.786 76.5867 440.554 73.088L446.698 44.16C446.698 43.0507 446.271 41.984 445.418 40.96C444.565 39.8507 443.242 39.296 441.45 39.296C438.037 39.296 434.965 41.3013 432.234 45.312C429.503 49.2373 427.37 54.016 425.834 59.648C424.298 65.1947 423.53 70.1013 423.53 74.368C423.53 78.6347 424.127 81.3653 425.322 82.56C426.602 83.7547 428.138 84.352 429.93 84.352ZM551.449 96.768C546.244 96.768 542.404 95.4027 539.929 92.672C537.54 89.856 536.345 86.4 536.345 82.304C536.345 80.512 536.558 78.5067 536.985 76.288C537.412 73.984 537.838 71.7653 538.265 69.632C538.777 67.4987 539.118 66.1333 539.289 65.536C539.972 62.5493 540.612 59.6053 541.209 56.704C541.806 53.8027 542.105 51.456 542.105 49.664C542.105 45.312 540.569 43.136 537.497 43.136C535.278 43.136 533.316 44.2453 531.609 46.464C529.902 48.5973 528.537 51.4133 527.513 54.912L518.809 96H500.377L509.721 51.84C509.977 50.816 510.105 49.7493 510.105 48.64C510.105 44.8853 508.825 43.008 506.265 43.008C503.876 43.008 501.785 44.1173 499.993 46.336C498.286 48.4693 496.921 51.328 495.897 54.912L487.193 96H468.761L482.329 32H500.761L499.353 38.656C503.705 33.792 508.91 31.36 514.969 31.36C522.478 31.36 526.873 35.0293 528.153 42.368C532.846 35.1147 538.777 31.488 545.945 31.488C550.297 31.488 553.753 32.6827 556.313 35.072C558.873 37.4613 560.153 41.088 560.153 45.952C560.153 48.4267 559.854 51.2 559.257 54.272C558.66 57.2587 557.806 60.928 556.697 65.28C556.014 67.9253 555.374 70.528 554.777 73.088C554.265 75.5627 554.009 77.5253 554.009 78.976C554.009 80.6827 554.393 82.0053 555.161 82.944C555.929 83.8827 557.252 84.352 559.129 84.352C561.689 84.352 563.737 83.456 565.273 81.664C566.809 79.7867 568.345 76.928 569.881 73.088H575.257C572.1 82.4747 568.43 88.7893 564.249 92.032C560.153 95.1893 555.886 96.768 551.449 96.768ZM585.235 96.768C580.371 96.768 576.318 95.104 573.075 91.776C569.832 88.448 568.211 83.2427 568.211 76.16C568.211 69.8453 569.448 63.232 571.923 56.32C574.483 49.3227 578.238 43.4347 583.187 38.656C588.222 33.792 594.195 31.36 601.107 31.36C604.606 31.36 607.208 31.9573 608.915 33.152C610.622 34.3467 611.475 35.9253 611.475 37.888V38.784L612.883 32H631.315L622.099 75.52C621.758 76.8 621.587 78.1653 621.587 79.616C621.587 83.2853 623.336 85.12 626.835 85.12C629.224 85.12 631.272 84.0107 632.979 81.792C634.771 79.5733 636.179 76.672 637.203 73.088H642.579C639.422 82.304 635.496 88.576 630.803 91.904C626.195 95.1467 621.544 96.768 616.851 96.768C613.267 96.768 610.366 95.7867 608.147 93.824C606.014 91.776 604.734 88.832 604.307 84.992C601.832 88.4907 599.059 91.3493 595.987 93.568C593 95.7013 589.416 96.768 585.235 96.768ZM593.555 84.352C595.688 84.352 597.779 83.3707 599.827 81.408C601.96 79.36 603.411 76.5867 604.179 73.088L610.323 44.16C610.323 43.0507 609.896 41.984 609.043 40.96C608.19 39.8507 606.867 39.296 605.075 39.296C601.662 39.296 598.59 41.3013 595.859 45.312C593.128 49.2373 590.995 54.016 589.459 59.648C587.923 65.1947 587.155 70.1013 587.155 74.368C587.155 78.6347 587.752 81.3653 588.947 82.56C590.227 83.7547 591.763 84.352 593.555 84.352ZM681.282 96.768C676.759 96.768 673.474 95.4027 671.426 92.672C669.378 89.9413 668.354 86.4853 668.354 82.304C668.354 80.512 668.567 78.5067 668.994 76.288C669.421 73.984 669.847 71.7653 670.274 69.632C670.786 67.4987 671.127 66.1333 671.298 65.536C671.981 62.5493 672.621 59.6053 673.218 56.704C673.815 53.8027 674.114 51.456 674.114 49.664C674.114 45.312 672.578 43.136 669.506 43.136C667.287 43.136 665.325 44.2453 663.618 46.464C661.911 48.5973 660.546 51.4133 659.522 54.912L650.818 96H632.386L645.954 32H664.386L662.978 38.656C667.245 33.8773 672.237 31.488 677.954 31.488C682.306 31.488 685.762 32.6827 688.322 35.072C690.882 37.4613 692.162 41.088 692.162 45.952C692.162 48.4267 691.863 51.2 691.266 54.272C690.669 57.2587 689.815 60.928 688.706 65.28C688.023 67.9253 687.383 70.528 686.786 73.088C686.274 75.5627 686.018 77.5253 686.018 78.976C686.018 80.6827 686.402 82.0053 687.17 82.944C687.938 83.8827 689.261 84.352 691.138 84.352C693.186 84.352 694.594 84.096 695.362 83.584C694.85 87.936 693.271 91.2213 690.626 93.44C688.066 95.6587 684.951 96.768 681.282 96.768Z" fill="url(#paint0_linear_5_31)"/>
<defs>
<linearGradient id="paint0_linear_5_31" x1="347.5" y1="-32" x2="347.5" y2="128" gradientUnits="userSpaceOnUse">
<stop/>
<stop offset="1" stop-color="#14EADD"/>
</linearGradient>
</defs>
</svg>
