<svg width="88" height="111" viewBox="0 0 88 111" fill="none" xmlns="http://www.w3.org/2000/svg">
<path d="M26.904 110.592C23.7467 110.592 20.9733 110.336 18.584 109.824C16.1947 109.312 14.104 108.075 12.312 106.112C10.6053 104.149 9.752 101.12 9.752 97.024C9.752 91.3067 11.4587 83.6267 14.872 73.984C18.3707 64.3413 22.936 54.656 28.568 44.928C24.3013 45.184 20.9307 45.824 18.456 46.848C15.9813 47.872 14.36 49.4507 13.592 51.584C13.9333 51.584 14.2747 52.0107 14.616 52.864C15.0427 53.7173 15.256 54.6133 15.256 55.552C15.256 57.088 14.5733 58.3253 13.208 59.264C11.8427 60.1173 10.136 60.544 8.088 60.544C5.69867 60.544 3.77867 59.904 2.328 58.624C0.877333 57.344 0.152 55.5093 0.152 53.12C0.152 50.2187 1.26133 47.5733 3.48 45.184C5.784 42.7947 8.94133 40.9173 12.952 39.552C16.9627 38.1013 21.4 37.376 26.264 37.376C28.056 37.376 30.2747 37.504 32.92 37.76C39.9173 26.6667 47.2987 17.6213 55.064 10.624C62.9147 3.54133 70.3813 -7.62939e-06 77.464 -7.62939e-06C81.56 -7.62939e-06 84.9307 0.597326 87.576 1.79199L67.48 96H49.048L58.904 49.536C55.7467 48.0853 52.8453 47.0187 50.2 46.336C47.5547 45.6533 44.7387 45.184 41.752 44.928C36.888 55.424 32.8773 66.176 29.72 77.184C26.648 88.1067 25.112 96.8533 25.112 103.424C25.112 106.667 25.7093 109.056 26.904 110.592ZM67.48 9.088C63.8107 11.0507 59.9707 14.72 55.96 20.096C52.0347 25.3867 48.1947 31.8293 44.44 39.424C50.584 40.6187 55.7893 42.112 60.056 43.904L67.48 9.088Z" fill="url(#paint0_linear_5_29)"/>
<defs>
<linearGradient id="paint0_linear_5_29" x1="42" y1="-32" x2="42" y2="128" gradientUnits="userSpaceOnUse">
<stop stop-color="#161616"/>
<stop offset="1" stop-color="#14EADD"/>
</linearGradient>
</defs>
</svg>
