<svg width="337" height="128" viewBox="0 0 337 128" fill="none" xmlns="http://www.w3.org/2000/svg">
<path d="M26.904 110.592C23.7467 110.592 20.9733 110.336 18.584 109.824C16.1947 109.312 14.104 108.075 12.312 106.112C10.6053 104.149 9.752 101.12 9.752 97.024C9.752 91.3067 11.4587 83.6267 14.872 73.984C18.3707 64.3413 22.936 54.656 28.568 44.928C24.3013 45.184 20.9307 45.824 18.456 46.848C15.9813 47.872 14.36 49.4507 13.592 51.584C13.9333 51.584 14.2747 52.0107 14.616 52.864C15.0427 53.7173 15.256 54.6133 15.256 55.552C15.256 57.088 14.5733 58.3253 13.208 59.264C11.8427 60.1173 10.136 60.544 8.088 60.544C5.69867 60.544 3.77867 59.904 2.328 58.624C0.877333 57.344 0.152 55.5093 0.152 53.12C0.152 50.2187 1.26133 47.5733 3.48 45.184C5.784 42.7947 8.94133 40.9173 12.952 39.552C16.9627 38.1013 21.4 37.376 26.264 37.376C28.056 37.376 30.2747 37.504 32.92 37.76C39.9173 26.6667 47.2987 17.6213 55.064 10.624C62.9147 3.54133 70.3813 -7.62939e-06 77.464 -7.62939e-06C81.56 -7.62939e-06 84.9307 0.597326 87.576 1.79199L67.48 96H49.048L58.904 49.536C55.7467 48.0853 52.8453 47.0187 50.2 46.336C47.5547 45.6533 44.7387 45.184 41.752 44.928C36.888 55.424 32.8773 66.176 29.72 77.184C26.648 88.1067 25.112 96.8533 25.112 103.424C25.112 106.667 25.7093 109.056 26.904 110.592ZM67.48 9.088C63.8107 11.0507 59.9707 14.72 55.96 20.096C52.0347 25.3867 48.1947 31.8293 44.44 39.424C50.584 40.6187 55.7893 42.112 60.056 43.904L67.48 9.088ZM93.204 32H111.636L109.972 39.936C112.873 37.376 115.476 35.4133 117.78 34.048C120.169 32.6827 122.729 32 125.46 32C128.191 32 130.324 32.9387 131.86 34.816C133.481 36.6933 134.292 38.9547 134.292 41.6C134.292 44.0747 133.481 46.2507 131.86 48.128C130.239 50.0053 127.977 50.944 125.076 50.944C123.199 50.944 121.919 50.5173 121.236 49.664C120.639 48.7253 120.169 47.4027 119.828 45.696C119.572 44.5867 119.316 43.776 119.06 43.264C118.804 42.752 118.335 42.496 117.652 42.496C115.86 42.496 114.324 42.88 113.044 43.648C111.849 44.3307 110.271 45.568 108.308 47.36L98.068 96H79.636L93.204 32ZM147.985 96.768C143.121 96.768 139.068 95.104 135.825 91.776C132.582 88.448 130.961 83.2427 130.961 76.16C130.961 69.8453 132.198 63.232 134.673 56.32C137.233 49.3227 140.988 43.4347 145.937 38.656C150.972 33.792 156.945 31.36 163.857 31.36C167.356 31.36 169.958 31.9573 171.665 33.152C173.372 34.3467 174.225 35.9253 174.225 37.888V38.784L175.633 32H194.065L184.849 75.52C184.508 76.8 184.337 78.1653 184.337 79.616C184.337 83.2853 186.086 85.12 189.585 85.12C191.974 85.12 194.022 84.0107 195.729 81.792C197.521 79.5733 198.929 76.672 199.953 73.088H205.329C202.172 82.304 198.246 88.576 193.553 91.904C188.945 95.1467 184.294 96.768 179.601 96.768C176.017 96.768 173.116 95.7867 170.897 93.824C168.764 91.776 167.484 88.832 167.057 84.992C164.582 88.4907 161.809 91.3493 158.737 93.568C155.75 95.7013 152.166 96.768 147.985 96.768ZM156.305 84.352C158.438 84.352 160.529 83.3707 162.577 81.408C164.71 79.36 166.161 76.5867 166.929 73.088L173.073 44.16C173.073 43.0507 172.646 41.984 171.793 40.96C170.94 39.8507 169.617 39.296 167.825 39.296C164.412 39.296 161.34 41.3013 158.609 45.312C155.878 49.2373 153.745 54.016 152.209 59.648C150.673 65.1947 149.905 70.1013 149.905 74.368C149.905 78.6347 150.502 81.3653 151.697 82.56C152.977 83.7547 154.513 84.352 156.305 84.352ZM188.48 128C184.469 128 180.971 126.677 177.984 124.032C174.912 121.472 173.376 118.187 173.376 114.176C173.376 110.507 174.315 107.477 176.192 105.088C178.069 102.699 180.501 100.779 183.488 99.328C186.475 97.9627 190.443 96.512 195.392 94.976L210.88 21.888C212.587 13.696 215.573 8.02133 219.84 4.864C224.192 1.70667 228.971 0.127998 234.176 0.127998C238.187 0.127998 241.685 1.45066 244.672 4.09599C247.744 6.656 249.28 9.94133 249.28 13.952C249.28 15.9147 249.152 17.664 248.896 19.2H242.88C243.051 17.3227 243.136 16.1707 243.136 15.744C243.136 14.3787 242.667 13.312 241.728 12.544C240.789 11.776 239.637 11.392 238.272 11.392C236.48 11.392 234.731 12.2027 233.024 13.824C231.317 15.36 230.08 18.048 229.312 21.888L227.136 32H236.48L235.584 37.12H226.112L211.392 106.24C209.685 114.517 206.741 120.192 202.56 123.264C198.379 126.421 193.685 128 188.48 128ZM185.536 116.608C188.949 116.608 191.381 113.28 192.832 106.624L194.496 99.2C189.973 100.736 186.517 102.485 184.128 104.448C181.653 106.496 180.416 109.141 180.416 112.384C180.416 113.408 180.928 114.347 181.952 115.2C182.976 116.139 184.171 116.608 185.536 116.608ZM249.485 96.768C244.621 96.768 240.568 95.104 237.325 91.776C234.082 88.448 232.461 83.2427 232.461 76.16C232.461 69.8453 233.698 63.232 236.173 56.32C238.733 49.3227 242.488 43.4347 247.437 38.656C252.472 33.792 258.445 31.36 265.357 31.36C268.856 31.36 271.458 31.9573 273.165 33.152C274.872 34.3467 275.725 35.9253 275.725 37.888V38.784L277.133 32H295.565L286.349 75.52C286.008 76.8 285.837 78.1653 285.837 79.616C285.837 83.2853 287.586 85.12 291.085 85.12C293.474 85.12 295.522 84.0107 297.229 81.792C299.021 79.5733 300.429 76.672 301.453 73.088H306.829C303.672 82.304 299.746 88.576 295.053 91.904C290.445 95.1467 285.794 96.768 281.101 96.768C277.517 96.768 274.616 95.7867 272.397 93.824C270.264 91.776 268.984 88.832 268.557 84.992C266.082 88.4907 263.309 91.3493 260.237 93.568C257.25 95.7013 253.666 96.768 249.485 96.768ZM257.805 84.352C259.938 84.352 262.029 83.3707 264.077 81.408C266.21 79.36 267.661 76.5867 268.429 73.088L274.573 44.16C274.573 43.0507 274.146 41.984 273.293 40.96C272.44 39.8507 271.117 39.296 269.325 39.296C265.912 39.296 262.84 41.3013 260.109 45.312C257.378 49.2373 255.245 54.016 253.709 59.648C252.173 65.1947 251.405 70.1013 251.405 74.368C251.405 78.6347 252.002 81.3653 253.197 82.56C254.477 83.7547 256.013 84.352 257.805 84.352ZM313.532 96.768C309.18 96.768 305.937 95.4453 303.804 92.8C301.756 90.1547 300.732 86.656 300.732 82.304C300.732 80.0853 300.988 77.824 301.5 75.52L309.692 37.12H305.468L306.492 32H310.716L314.556 14.336L333.5 11.776C332.732 15.0187 332.305 16.9387 332.22 17.536C331.623 19.9253 330.599 24.7467 329.148 32H336.828L335.804 37.12H328.124L319.932 75.52C319.505 77.3973 319.292 78.8907 319.292 80C319.292 83.072 320.785 84.608 323.772 84.608C325.308 84.608 326.417 84.48 327.1 84.224C325.393 89.1733 323.388 92.5013 321.084 94.208C318.78 95.9147 316.263 96.768 313.532 96.768Z" fill="url(#paint0_linear_5_32)"/>
<defs>
<linearGradient id="paint0_linear_5_32" x1="168" y1="-32" x2="168" y2="128" gradientUnits="userSpaceOnUse">
<stop/>
<stop offset="1" stop-color="#14EADD"/>
</linearGradient>
</defs>
</svg>
