<svg width="150" height="160" viewBox="0 0 150 160" fill="none" xmlns="http://www.w3.org/2000/svg">
<rect y="5" width="150" height="150" rx="40" fill="#D9D9D9"/>
<path d="M59.904 142.592C56.7467 142.592 53.9733 142.336 51.584 141.824C49.1947 141.312 47.104 140.075 45.312 138.112C43.6053 136.149 42.752 133.12 42.752 129.024C42.752 123.307 44.4587 115.627 47.872 105.984C51.3707 96.3413 55.936 86.656 61.568 76.928C57.3013 77.184 53.9307 77.824 51.456 78.848C48.9813 79.872 47.36 81.4507 46.592 83.584C46.9333 83.584 47.2747 84.0107 47.616 84.864C48.0427 85.7173 48.256 86.6133 48.256 87.552C48.256 89.088 47.5733 90.3253 46.208 91.264C44.8427 92.1173 43.136 92.544 41.088 92.544C38.6987 92.544 36.7787 91.904 35.328 90.624C33.8773 89.344 33.152 87.5093 33.152 85.12C33.152 82.2187 34.2613 79.5733 36.48 77.184C38.784 74.7947 41.9413 72.9173 45.952 71.552C49.9627 70.1013 54.4 69.376 59.264 69.376C61.056 69.376 63.2747 69.504 65.92 69.76C72.9173 58.6667 80.2987 49.6213 88.064 42.624C95.9147 35.5413 103.381 32 110.464 32C114.56 32 117.931 32.5973 120.576 33.792L100.48 128H82.048L91.904 81.536C88.7467 80.0853 85.8453 79.0187 83.2 78.336C80.5547 77.6533 77.7387 77.184 74.752 76.928C69.888 87.424 65.8773 98.176 62.72 109.184C59.648 120.107 58.112 128.853 58.112 135.424C58.112 138.667 58.7093 141.056 59.904 142.592ZM100.48 41.088C96.8107 43.0507 92.9707 46.72 88.96 52.096C85.0347 57.3867 81.1947 63.8293 77.44 71.424C83.584 72.6187 88.7893 74.112 93.056 75.904L100.48 41.088Z" fill="url(#paint0_linear_5_25)"/>
<defs>
<linearGradient id="paint0_linear_5_25" x1="75" y1="0" x2="75" y2="160" gradientUnits="userSpaceOnUse">
<stop stop-color="#161616"/>
<stop offset="1" stop-color="#14EADD"/>
</linearGradient>
</defs>
</svg>
